<svg width="3151" height="631" viewBox="0 0 3151 631" fill="none" xmlns="http://www.w3.org/2000/svg">
<g clip-path="url(#clip0_1_171)">
<path d="M704.475 347.408L548.433 618.38C543.944 626.183 535.615 631 526.636 631H201.461L305.475 570.782H491.937C500.937 570.782 509.245 565.965 513.734 558.162L639.21 340.277L256.028 118.481V75.2573H301.468L692.182 301.429C708.231 310.725 713.727 331.296 704.475 347.408ZM618.713 345.809L581.37 324.187L198.189 546.004L72.7131 328.12C68.2235 320.317 68.2235 310.683 72.7131 302.88L165.944 140.986V20.5706L3.37739 302.88C-1.11212 310.683 -1.11212 320.317 3.37739 328.12L159.419 599.092C168.692 615.183 189.21 620.694 205.279 611.418L595.993 385.247L618.713 345.788V345.809ZM241.028 503.832L241.028 60.2184L491.958 60.2184C500.958 60.2184 509.265 65.0351 513.755 72.8384L606.986 234.732L711 294.95L548.433 12.62C543.944 4.81663 535.615 0 526.636 0L214.531 0C195.986 0 180.965 15.0599 180.965 33.6533L180.965 485.975L203.685 525.434L241.028 503.811V503.832ZM439.363 296.738L330.692 233.828C316.699 225.73 299.224 235.847 299.224 252.042V377.864C299.224 394.059 316.699 404.177 330.692 396.079L439.363 333.168C453.356 325.07 453.356 304.836 439.363 296.738Z" fill="url(#paint0_linear_1_171)"/>
</g>
<g clip-path="url(#clip1_1_171)">
<path d="M2507.16 149.22V200.835H2692.33C2711.98 200.835 2727.91 216.799 2727.91 236.486V255.51C2727.91 275.198 2711.98 291.162 2692.33 291.162H2576.2C2531.15 291.162 2494.28 328.103 2494.28 373.248V482.875H2790.45V431.26H2556.83V380.327C2556.83 359.681 2573.7 342.777 2594.3 342.777H2705.46C2752.21 342.777 2790.45 304.453 2790.45 257.612V229.703C2790.45 185.443 2754.3 149.22 2710.14 149.22H2507.16Z" fill="black"/>
<path d="M3151 351.994H3103.17V149.22H3040.63V351.994H2934.34C2911.86 351.994 2893.46 333.56 2893.46 311.034V149.22H2830.92V322.665C2830.92 367.184 2867.27 403.609 2911.69 403.609H3040.63V482.875H3103.17V403.609H3151V351.994Z" fill="black"/>
<g clip-path="url(#clip2_1_171)">
<path d="M1002.08 483C994.881 483 988.535 481.277 982.615 477.515C976.269 474.086 971.222 468.174 966.916 460.224L818 149.425H885.305L1002.08 394.269L1118.86 149.425H1186.18L1037.25 460.113C1033.05 468.174 1027.89 474.086 1021.97 477.403C1015.63 481.165 1008.85 482.889 1002.08 482.889V483Z" fill="black"/>
<path d="M2084.69 240.231V394.047C2084.69 443.175 2124.57 483 2173.76 483H2309.22C2358.42 483 2398.3 443.175 2398.3 394.047V240.231C2398.3 191.103 2358.42 151.278 2309.22 151.278H2173.76C2124.57 151.278 2084.69 191.103 2084.69 240.231ZM2290.67 431.111H2192.32C2167.73 431.111 2147.78 411.189 2147.78 386.634V247.644C2147.78 223.089 2167.73 203.168 2192.32 203.168H2290.67C2315.26 203.168 2335.2 223.089 2335.2 247.644V386.634C2335.2 411.189 2315.26 431.111 2290.67 431.111Z" fill="black"/>
<path d="M1378.78 151.278V483H1582.9C1640.3 483 1686.82 436.54 1686.82 379.221V255.057C1686.82 197.738 1640.3 151.278 1582.9 151.278H1378.78ZM1556.92 431.111H1441.87V203.168H1556.92C1593.81 203.168 1623.73 233.041 1623.73 269.883V364.395C1623.73 401.237 1593.81 431.111 1556.92 431.111Z" fill="black"/>
<path d="M2034.59 203.168V151.278H1826.75C1777.56 151.278 1737.68 191.103 1737.68 240.231V394.047C1737.68 443.175 1777.56 483 1826.75 483H2034.59V431.111H1845.31C1820.72 431.111 1800.77 411.189 1800.77 386.634V343.084H2016.03V291.194H1800.77V247.644C1800.77 223.089 1820.72 203.168 1845.31 203.168H2034.59Z" fill="black"/>
<path d="M1301 151.278H1237.9V483H1301V151.278Z" fill="black"/>
</g>
</g>
<defs>
<linearGradient id="paint0_linear_1_171" x1="101.822" y1="-32.5167" x2="598.623" y2="654.353" gradientUnits="userSpaceOnUse">
<stop stop-color="#FF1E7C"/>
<stop offset="0.600557" stop-color="#EC00C6"/>
<stop offset="1" stop-color="#1E9CF7"/>
</linearGradient>
<clipPath id="clip0_1_171">
<rect width="711" height="631" fill="white"/>
</clipPath>
<clipPath id="clip1_1_171">
<rect width="2333" height="334" fill="white" transform="translate(818 149)"/>
</clipPath>
<clipPath id="clip2_1_171">
<rect width="1580.3" height="333.575" fill="white" transform="translate(818 149.425)"/>
</clipPath>
</defs>
</svg>
